<svg xmlns="http://www.w3.org/2000/svg" viewBox="0 0 16 16">
  <rect width="16" height="16" rx="3" fill="#1a1a26"/>
  <g fill="#d19a66">
    <rect x="4" y="3" width="1" height="1"/>
    <rect x="11" y="3" width="1" height="1"/>
    <rect x="3" y="4" width="1" height="1"/>
    <rect x="5" y="4" width="1" height="1"/>
    <rect x="10" y="4" width="1" height="1"/>
    <rect x="12" y="4" width="1" height="1"/>
    <rect x="3" y="5" width="1" height="1"/>
    <rect x="6" y="5" width="1" height="1"/>
    <rect x="9" y="5" width="1" height="1"/>
    <rect x="12" y="5" width="1" height="1"/>
    <rect x="4" y="6" width="8" height="1"/>
    <rect x="3" y="7" width="10" height="1"/>
    <rect x="3" y="8" width="10" height="1"/>
    <rect x="3" y="9" width="10" height="1"/>
    <rect x="3" y="10" width="10" height="1"/>
    <rect x="4" y="11" width="8" height="1"/>
    <rect x="5" y="12" width="6" height="1"/>
  </g>
  <g fill="#1a1a26">
    <rect x="5" y="8" width="1" height="1"/>
    <rect x="10" y="8" width="1" height="1"/>
  </g>
  <g fill="#E06C75" opacity="0.5">
    <rect x="3" y="10" width="1" height="1"/>
    <rect x="12" y="10" width="1" height="1"/>
  </g>
  <rect x="7" y="10" width="2" height="1" fill="#282c34"/>
</svg>
